<?xml version="1.0" encoding="utf-8"?>
<!-- Generator: Adobe Illustrator 21.1.0, SVG Export Plug-In . SVG Version: 6.00 Build 0)  -->
<svg version="1.1" id="Capa_1" xmlns="http://www.w3.org/2000/svg" xmlns:xlink="http://www.w3.org/1999/xlink" x="0px" y="0px"
	 viewBox="0 0 33 25" style="enable-background:new 0 0 33 25;" xml:space="preserve">
<style type="text/css">
	.st0{fill:#FFFFFF;}
</style>
<title>omicMesa de trabajo 4 copia 2</title>
<path class="st0" d="M28.5,1.4h-24c-0.9,0-1.8,0.5-2.3,1.2l13.3,12.9c0.6,0.6,1.5,0.6,2.1,0L30.7,2.4C30.1,1.8,29.3,1.4,28.5,1.4z
	 M22.7,12.6l8.7,8.4c0-0.1,0-0.3,0-0.4V4.3c0-0.2,0-0.3,0-0.5L22.7,12.6z M10.3,12.6L1.6,4.2v16.6L10.3,12.6z M30.7,22.5l-9.2-8.8
	l-2.9,2.9c-0.6,0.6-1.3,0.9-2.1,0.9c-0.8,0-1.6-0.3-2.1-0.9l-2.9-2.9l-9.3,8.6c0.5,0.8,1.4,1.3,2.4,1.3h23.9
	C29.3,23.6,30.2,23.2,30.7,22.5z"/>
</svg>
