<svg id="Capa_1" data-name="Capa 1" xmlns="http://www.w3.org/2000/svg" viewBox="0 0 47 47"><defs><style>.cls-1{fill:#fff;}</style></defs><title>omicMesa de trabajo 4</title><path class="cls-1" d="M23.5,1.46a22,22,0,1,0,22,22A22,22,0,0,0,23.5,1.46ZM34.32,18c0,.24,0,.48,0,.72A15.87,15.87,0,0,1,9.9,32a11.27,11.27,0,0,0,8.26-2.31,5.59,5.59,0,0,1-5.21-3.88,5.6,5.6,0,0,0,2.52-.1A5.59,5.59,0,0,1,11,20.29s0,0,0-.07a5.55,5.55,0,0,0,2.53.7,5.59,5.59,0,0,1-1.73-7.45A15.85,15.85,0,0,0,23.3,19.3a5.59,5.59,0,0,1,9.51-5.09,11.17,11.17,0,0,0,3.54-1.35,5.6,5.6,0,0,1-2.46,3.09,11.15,11.15,0,0,0,3.21-.88A11.33,11.33,0,0,1,34.32,18Z"/></svg>