<svg id="Capa_1" data-name="Capa 1" xmlns="http://www.w3.org/2000/svg" xmlns:xlink="http://www.w3.org/1999/xlink" viewBox="0 0 47 47"><defs><style>.cls-1{fill:none;}.cls-2{clip-path:url(#clip-path);}.cls-3{opacity:0.3;}.cls-4{opacity:0.2;}.cls-5{fill:#fff;}</style><clipPath id="clip-path"><rect class="cls-1" x="-466" y="-1312.22" width="1948.93" height="1104.44" transform="translate(1016.93 -1520) rotate(180)"/></clipPath></defs><title>omicMesa de trabajo 4 copia</title><path class="cls-5" d="M25.73,21V20.9l0,.05Z"/><path class="cls-5" d="M23.5,1.46a22,22,0,1,0,22,22A22,22,0,0,0,23.5,1.46ZM17.83,34H12.74V18.73h5.08ZM15.29,16.65h0a2.65,2.65,0,1,1,.07-5.29,2.65,2.65,0,1,1,0,5.29ZM36.17,34H31.08V25.85c0-2.05-.73-3.46-2.58-3.46a2.78,2.78,0,0,0-2.61,1.86,3.48,3.48,0,0,0-.17,1.24V34H20.64s.07-13.86,0-15.3h5.09V20.9a5,5,0,0,1,4.58-2.53c3.35,0,5.85,2.19,5.85,6.88Z"/></svg>