<svg id="Capa_1" data-name="Capa 1" xmlns="http://www.w3.org/2000/svg" xmlns:xlink="http://www.w3.org/1999/xlink" viewBox="0 0 47 47"><defs><style>.cls-1{fill:none;}.cls-2{clip-path:url(#clip-path);}.cls-3{opacity:0.3;}.cls-4{opacity:0.2;}.cls-5{fill:#fff;}</style><clipPath id="clip-path"><rect class="cls-1" x="-540" y="-1312.22" width="1948.93" height="1104.44" transform="translate(868.93 -1520) rotate(180)"/></clipPath></defs><title>omicMesa de trabajo 4 copia 3</title><path class="cls-5" d="M23.5,2.57A16,16,0,0,0,7.56,18.5c0,7,9.86,19.85,14,25a2.58,2.58,0,0,0,1.89.95,2.19,2.19,0,0,0,1.89-.95c4.19-5.13,14-18,14-25A16,16,0,0,0,23.5,2.57Zm8,14.72a8,8,0,1,1-8-8A7.94,7.94,0,0,1,31.48,17.29Z"/></svg>