<svg id="Capa_1" data-name="Capa 1" xmlns="http://www.w3.org/2000/svg" viewBox="0 0 670 135"><defs><style>.cls-1{fill:#fff;}</style></defs><title>omicMesa de trabajo 2</title><path class="cls-1" d="M375.93,17.71A3.18,3.18,0,0,1,377,20.2a3.18,3.18,0,0,1-1.09,2.5,4,4,0,0,1-2.76,1q-9.36,0-13.58,6.22T355.36,46.6v2.69h16.92a3.46,3.46,0,1,1,0,6.92H355.36V113a3.74,3.74,0,0,1-1.09,2.76,3.9,3.9,0,0,1-2.88,1.09,3.73,3.73,0,0,1-3.84-3.84V56.21h-10a3.46,3.46,0,1,1,0-6.92h10V46.6q0-13.71,6.41-21.79t19.22-8.07A4,4,0,0,1,375.93,17.71Zm32.46,91.43h-3.2a7.5,7.5,0,0,1-6.47-3.78,17.22,17.22,0,0,1-2.5-9.68V20.59a3.55,3.55,0,0,0-3.84-3.84,3.86,3.86,0,0,0-2.75,1,3.69,3.69,0,0,0-1.09,2.82v75.1q0,9.36,4.68,15.25a14.63,14.63,0,0,0,12,5.89h2.56a3.69,3.69,0,0,0,2.82-1.09,3.87,3.87,0,0,0,1-2.76,4.15,4.15,0,0,0-.9-2.82A2.93,2.93,0,0,0,408.39,109.14Zm79.13-45.62a36.35,36.35,0,0,1,4.68,18.33,36.09,36.09,0,0,1-4.68,18.2,33.93,33.93,0,0,1-12.88,12.88,38,38,0,0,1-36.52,0A33.89,33.89,0,0,1,425.24,100a36.06,36.06,0,0,1-4.68-18.2,36.31,36.31,0,0,1,4.68-18.33,33.93,33.93,0,0,1,12.88-12.88,38,38,0,0,1,36.52,0A34,34,0,0,1,487.52,63.52Zm-3,18.33a29.44,29.44,0,0,0-3.65-14.61,27.15,27.15,0,0,0-10.06-10.32A28.15,28.15,0,0,0,432,67.24a30.59,30.59,0,0,0,0,29.22,27.12,27.12,0,0,0,10.13,10.25,29.57,29.57,0,0,0,28.7,0,26.69,26.69,0,0,0,10.06-10.25A29.45,29.45,0,0,0,484.51,81.84ZM587.28,46.73A3.63,3.63,0,0,0,583.69,49L565.88,102.6l-16.79-52.8q-1-3.07-3.84-3.08a3.73,3.73,0,0,0-2.43.83,4.23,4.23,0,0,0-1.41,2.24l-16.66,53.82L506.68,49a3.71,3.71,0,0,0-1.47-1.73,4,4,0,0,0-2.12-.58q-3.2,0-3.2,3.46a15.61,15.61,0,0,0,.25,2l20.76,62.15a3.38,3.38,0,0,0,1.35,1.79,4,4,0,0,0,2.24.64,3.49,3.49,0,0,0,3.59-2.44L545,60.19l17.43,54.21a2.75,2.75,0,0,0,1.28,1.79,4.26,4.26,0,0,0,2.31.64,4.17,4.17,0,0,0,2.37-.64,3.36,3.36,0,0,0,1.35-1.79l20.63-62.15a5.45,5.45,0,0,0,.39-1.92,3.76,3.76,0,0,0-.9-2.56A3.22,3.22,0,0,0,587.28,46.73Zm63,38.25q-6-5.32-19.54-7.24-10.38-1.54-14.8-4.61a9.53,9.53,0,0,1-4.42-8.2q0-5,4.61-8.39t12.43-3.4q11.79,0,18.33,8.33a3.9,3.9,0,0,0,3.2,1.67,5.79,5.79,0,0,0,1.92-.51A3.38,3.38,0,0,0,654,59.68a3.24,3.24,0,0,0-.77-2.18Q644.95,46,628.8,46q-11,0-17.88,5.19T604.07,65.7q0,7,6.34,12t18.77,6.79q19.61,2.82,19.61,12.94a11,11,0,0,1-4.81,9.23q-4.81,3.59-14.93,3.59-14.22,0-20.63-7.82a3.64,3.64,0,0,0-2.95-1.41,3.31,3.31,0,0,0-2.18.64,3.46,3.46,0,0,0-1.67,2.95,3.41,3.41,0,0,0,.9,2.31,27.85,27.85,0,0,0,11.66,8,41.09,41.09,0,0,0,14.48,2.63,37.6,37.6,0,0,0,13.71-2.44,24.34,24.34,0,0,0,10.06-6.92,15.64,15.64,0,0,0,3.78-10.38A16.65,16.65,0,0,0,650.27,85Zm-471-41.28a31.4,31.4,0,0,0-13.37,2.81A28.35,28.35,0,0,0,157,53a23.85,23.85,0,0,0-8-6.56,27,27,0,0,0-12.32-2.77,28,28,0,0,0-10.49,2,25.45,25.45,0,0,0-6.59,3.86,7.33,7.33,0,0,0-1.87-2.94,7.68,7.68,0,0,0-5.53-2.1,7.77,7.77,0,0,0-5.59,2.16,7.58,7.58,0,0,0-2.26,5.69v57a8,8,0,0,0,13.55,5.6,7.77,7.77,0,0,0,2.16-5.6V73.22A15.22,15.22,0,0,1,124,62.33a13.08,13.08,0,0,1,10.12-4.19c4,0,7.12,1.19,9.49,3.64s3.54,6.1,3.54,10.93v36.65a8,8,0,0,0,13.55,5.6,7.77,7.77,0,0,0,2.16-5.6V73.22a15.22,15.22,0,0,1,3.94-10.89,12.93,12.93,0,0,1,10-4.19c4,0,7.12,1.19,9.49,3.64s3.54,6.1,3.54,10.93v.82a8,8,0,0,0,13.55,5.59,7.77,7.77,0,0,0,2.16-5.59v-.82c0-9-2.43-16.18-7.21-21.28S187.09,43.71,179.31,43.71Zm49.9-25.89a9.85,9.85,0,0,0-9.78,9.78A9.78,9.78,0,1,0,236.1,20.7,9.45,9.45,0,0,0,229.21,17.81Zm0,25.89a7.76,7.76,0,0,0-5.59,2.16,7.58,7.58,0,0,0-2.26,5.69v57.67a8,8,0,0,0,13.55,5.59,7.76,7.76,0,0,0,2.17-5.59V51.56a7.49,7.49,0,0,0-7.86-7.86Zm-23.75,65.58V95.64a7.92,7.92,0,1,0-15.84,0v13.66a7.92,7.92,0,0,0,15.84,0Zm74.56.26a7.09,7.09,0,0,0-2.74-9.65A22.66,22.66,0,1,1,305.15,65a7.09,7.09,0,1,0,10.56-9.47,36.84,36.84,0,1,0-45.34,56.8,7.09,7.09,0,0,0,9.65-2.74Zm16.4,6.73c8-1.43,15.37-6.24,21.2-13.91a7.09,7.09,0,1,0-11.29-8.59c-2.54,3.34-6.75,7.52-12.4,8.53a7.09,7.09,0,1,0,2.48,14ZM52.91,118.22a37.62,37.62,0,1,0-19-70.89,7.09,7.09,0,1,0,6.6,12.56A23.44,23.44,0,1,1,52.34,104,23.25,23.25,0,0,1,35.5,97.86a23.49,23.49,0,0,1-5.7-26.38A7.09,7.09,0,1,0,16.74,66a37.63,37.63,0,0,0,34.61,52.31Q52.13,118.26,52.91,118.22Z"/></svg>