<?xml version="1.0" encoding="utf-8"?>
<!-- Generator: Adobe Illustrator 21.1.0, SVG Export Plug-In . SVG Version: 6.00 Build 0)  -->
<svg version="1.1" id="Capa_1" xmlns="http://www.w3.org/2000/svg" xmlns:xlink="http://www.w3.org/1999/xlink" x="0px" y="0px"
	 viewBox="0 0 4013 1920" style="enable-background:new 0 0 4013 1920;" xml:space="preserve">
<style type="text/css">
	.st0{fill:#606060;}
	.st1{opacity:0.2;}
	.st2{fill:#FFFFFF;}
</style>
<title>pattern-fondo</title>
<circle class="st0" cx="-876.6" cy="1235.4" r="106.5"/>
<g class="st1">
	<path class="st2" d="M2763.6,1128.9c-106.4,0-191,43-258.6,131.5l-0.3,0.3c-27.8,36.4-48.8,74.9-69.2,112.1
		c-47.9,87.4-68.4,114.7-103.5,114.7s-55.6-27.2-103.6-114.7c-53.2-97.1-133.6-243.8-328.1-243.8s-274.9,146.7-328.1,243.8
		c-47.9,87.4-68.4,114.7-103.5,114.7c-51.5,0-93.2,41.1-93.2,91.9s41.8,91.9,93.2,91.9c152,0,218.8-122.1,267.7-211.2
		c57.3-104.7,88.2-147.4,163.9-147.4c75.7,0,106.6,42.6,164,147.4c48.6,88.6,115,209.8,265.3,211.1c0.8,0,1.6,0,2.4,0
		c0.8,0,1.6,0,2.4,0c150.3-1.3,216.7-122.5,265.2-211.1c17.9-32.7,34.8-63.5,54.2-88.9l0.2-0.2c32-41.9,62.8-58.2,109.7-58.2
		c51.5,0,93.2-41.1,93.2-91.9S2815.1,1128.9,2763.6,1128.9z"/>
	<circle class="st2" cx="180" cy="1356.9" r="106.5"/>
	<path class="st2" d="M836.4,1415.3c-221.3,0-401.3,177.4-401.3,395.4c0,218,180,395.4,401.3,395.4s401.3-177.4,401.3-395.4
		S1057.6,1415.3,836.4,1415.3z M1052,1810.7c0,117.1-96.7,212.4-215.6,212.4s-215.6-95.3-215.6-212.4s96.7-212.4,215.6-212.4
		S1052,1693.6,1052,1810.7L1052,1810.7z"/>
	<path class="st2" d="M0,157.5c-218,0-395.4,180-395.4,401.3S-218,960,0,960s395.4-180,395.4-401.3S218,157.5,0,157.5z M0,774.4
		c-117.1,0-212.5-96.7-212.5-215.6c0-118.9,95.3-215.6,212.5-215.6s212.5,96.7,212.5,215.6C212.5,677.6,117.1,774.4,0,774.4z"/>
	<path class="st2" d="M1470.4,170.6c78.7,22.4,190,7.5,276.9-37.1l6.8-3.5c38.6-19.8,110.4-56.5,135-55.2
		c12.6,4.9,40.9,39.9,59.8,63.3c11.4,14.1,24.2,30,38.2,46.1c3.5,4,7.6,9.4,12.6,15.8c52,66.6,190.1,243.5,415.8,180.5
		c254.7-70.9,320.5-312.8,340.9-654c7.2-119.9-24.8-304.4-138.6-430.1c-71.6-79-166-122.2-273-124.8c-3.8-0.1-7.5-0.1-11.1-0.1
		c-155.5,0-247.3,79.4-314.8,137.7c-68.8,59.5-91.5,73.2-139.1,60.1c-206.9-56.9-360-49.2-468.1,23.4
		c-92.9,62.4-148.2,167.7-169.2,322C1202.3,11.9,1366.8,141.1,1470.4,170.6z M1423.9-259.9c13.4-98.3,42.5-161.3,88.9-192.6
		c60.9-40.9,168.3-40.6,319.3,1c145.9,40.1,234.4-36.5,305.6-98c59.3-51.2,110.4-95.1,202.9-93.3c57.8,1.4,104.4,22.6,142.6,64.8
		c69.8,77.1,95.9,206,90.7,293.2c-21.8,363-95.2,455.2-206.8,486.3c-52.8,14.7-117.9,19-224-116.8c-7.4-9.5-13.7-17.4-18.8-23.3
		c-11.7-13.5-23-27.4-33.8-40.9c-42.1-52.1-85.6-106-153.8-125c-85-23.7-176.6,23.4-265.2,68.9l-6.8,3.5
		c-55.8,28.7-119.5,31.3-144.9,24C1514.7-9.6,1394.9-46.3,1423.9-259.9z"/>
	<path class="st2" d="M1666.6,366.5c-17.9-18.3-41.4-27.4-64.9-27.4c-23.3,0-46.6,9-64.4,26.9c-35.9,36.1-36.1,94.9-0.5,131.3
		L1840.6,809c35.6,36.4,93.5,36.6,129.4,0.5c35.9-36.1,36.1-94.9,0.5-131.3L1666.6,366.5z"/>
	<path class="st2" d="M2926.5,705.7l-432.1-53.4c-50.5-6.2-95.9,29.8-101.3,80.5c-5.4,50.6,31.1,96.6,81.7,102.8l432.1,53.4
		c25.4,3.1,49.5-4.5,67.8-19.2c18.2-14.6,30.8-36.1,33.4-61.3C3013.6,757.9,2977,711.9,2926.5,705.7z"/>
	<path class="st2" d="M1079,1264.4c44.3,24.7,99.9,8.4,124.2-36.6l242-446.2c24.4-44.9,8.2-101.4-36-126.1
		c-14-7.8-29.1-11.5-44-11.5c-32.3,0-63.5,17.4-80.2,48.1l-242,446.2C1018.6,1183.2,1034.8,1239.7,1079,1264.4z"/>
	<path class="st2" d="M706.3,718.8c-89.1,48.8-211.2,115.7-211.2,267.7c0,51.5,41.1,93.2,91.9,93.2s91.9-41.7,91.9-93.2
		c0-35.1,27.2-55.6,114.7-103.5c97.1-53.2,243.9-133.6,243.9-328.1c0-194.5-146.7-274.9-243.8-328.1
		c-87.5-47.9-114.7-68.5-114.7-103.6c0-35.1,27.2-55.6,114.7-103.5c37.2-20.4,75.7-41.5,112.1-69.2c0.1-0.1,0.2-0.2,0.3-0.3
		c88.5-67.6,131.5-152.2,131.5-258.6c0-51.5-41.1-93.2-91.9-93.2s-91.9,41.7-91.9,93.2c0,46.8-16.3,77.6-58.2,109.7
		c-0.1,0.1-0.2,0.1-0.2,0.2c-25.4,19.4-56.2,36.3-88.9,54.2c-88.6,48.6-209.8,115-211.1,265.2c0,0.8,0,1.6,0,2.4s0,1.6,0,2.4
		c1.3,150.3,122.5,216.7,211.1,265.3c104.7,57.4,147.4,88.3,147.4,164C853.6,630.5,811,661.4,706.3,718.8z"/>
	<path class="st2" d="M3062.8,88.5l171.3-0.8c10.5,46.8,29.2,90.4,54.5,129.4l-120.6,121.8c-33.3,33.7-33.1,88,0.6,121.3
		c16.8,16.7,38.8,24.9,60.8,24.8c22-0.1,43.9-8.6,60.5-25.4l120.6-121.8c39.2,24.9,83.1,43.2,129.9,53.3l0.8,171.3
		c0.2,47.4,38.8,85.6,86.2,85.4s85.6-38.8,85.4-86.2l-0.8-171.3c46.8-10.5,90.4-29.2,129.4-54.5l121.8,120.6
		c16.8,16.7,38.8,24.9,60.8,24.8c22-0.1,43.9-8.6,60.5-25.4c33.3-33.7,33.1-88-0.6-121.3l-121.8-120.6
		c24.9-39.2,43.2-83.1,53.2-129.9l171.3-0.8c47.4-0.2,85.6-38.8,85.4-86.2c-0.2-47.4-38.8-85.6-86.2-85.4l-171.3,0.8
		c-10.5-46.8-29.2-90.4-54.5-129.4l120.6-121.8c33.3-33.7,33.1-88-0.6-121.3c-33.7-33.3-88-33.1-121.3,0.6l-120.6,121.8
		c-39.2-24.9-83.1-43.2-129.9-53.2l-0.8-171.3c-0.2-47.4-38.8-85.6-86.2-85.4s-85.6,38.8-85.4,86.2l0.8,171.3
		c-46.8,10.5-90.4,29.2-129.4,54.5l-121.8-120.6c-33.7-33.3-88-33.1-121.3,0.6c-33.3,33.7-33.1,88,0.6,121.3l121.8,120.6
		c-24.9,39.2-43.2,83.1-53.2,129.9l-171.3,0.8c-47.4,0.2-85.6,38.8-85.4,86.2S3015.4,88.7,3062.8,88.5z M3623.2-228.3
		C3749.1-229,3852-127,3852.6-1.1c0.6,125.9-101.3,228.9-227.3,229.5S3396.5,127,3395.9,1.1C3395.3-124.8,3497.3-227.7,3623.2-228.3
		z"/>
	<path class="st2" d="M4380.5,1014.6c-71.6-79-166-122.2-273-124.8c-3.8-0.1-7.5-0.1-11.1-0.1c-155.5,0-247.3,79.4-314.8,137.7
		c-68.8,59.5-91.5,73.2-139.1,60.1c-206.9-56.9-360-49.2-468.1,23.4c-92.9,62.4-148.2,167.7-169.2,322
		c-40.4,297.1,124.2,426.3,227.8,455.8c78.7,22.4,190,7.5,276.9-37.1l6.8-3.5c38.6-19.8,110.4-56.5,135-55.2
		c12.6,4.9,40.9,39.9,59.8,63.3c11.4,14.1,24.2,30,38.2,46.1c3.5,4,7.6,9.4,12.6,15.8c52,66.6,190.1,243.5,415.8,180.5
		c254.7-70.9,320.5-312.8,340.9-654C4526.3,1324.8,4494.3,1140.2,4380.5,1014.6z M4336.5,1433.4c-21.8,363-95.2,455.2-206.8,486.3
		c-52.8,14.7-117.9,19-224-116.8c-7.4-9.5-13.7-17.4-18.8-23.3c-11.7-13.5-23-27.4-33.8-40.9c-42.1-52.1-85.6-106-153.8-125
		c-85-23.7-176.6,23.4-265.2,68.9l-6.8,3.5c-55.8,28.7-119.5,31.3-144.9,24c-5.1-1.5-125-38.1-95.9-251.7
		c13.4-98.3,42.5-161.3,88.9-192.6c60.9-40.9,168.3-40.6,319.3,1c145.9,40.1,234.4-36.5,305.6-98c59.3-51.2,110.4-95.1,202.9-93.3
		c57.8,1.4,104.4,22.6,142.6,64.8C4315.6,1217.2,4341.8,1346.2,4336.5,1433.4z"/>
</g>
</svg>
