<svg id="Capa_1" data-name="Capa 1" xmlns="http://www.w3.org/2000/svg" viewBox="0 0 1920 4013"><defs><style>.cls-1{fill:#fff;}</style></defs><title>pattern-fondo</title><path class="cls-1" d="M825.53,1434.86c88.64-48.56,209.84-115,211.13-265.26q0-1.2,0-2.42t0-2.42c-1.29-150.27-122.49-216.67-211.13-265.23-32.67-17.89-63.54-34.8-88.91-54.16l-.23-.17c-41.9-32-58.23-62.8-58.23-109.65,0-51.5-41.14-93.25-91.88-93.25s-91.88,41.75-91.88,93.25c0,106.4,43,191,131.46,258.61l.33.27c36.4,27.77,74.87,48.84,112.06,69.22,87.45,47.9,114.69,68.44,114.69,103.53s-27.24,55.64-114.7,103.57c-97.1,53.19-243.84,133.59-243.84,328.1s146.74,274.86,243.85,328.05c87.45,47.9,114.69,68.44,114.69,103.54,0,51.5,41.14,93.25,91.88,93.25s91.88-41.75,91.88-93.25c0-152-122.06-218.84-211.18-267.66-104.72-57.35-147.36-88.24-147.36-163.94S720.81,1492.22,825.53,1434.86Z"/><path class="cls-1" d="M1462.17,3060.62a90.52,90.52,0,0,0-129.35-.51c-35.86,36.1-36.09,94.88-.52,131.27l303.88,311.81a90.48,90.48,0,0,0,129.35.51c35.86-36.1,36.09-94.88.52-131.27Z"/><circle class="cls-1" cx="1240.5" cy="220.5" r="106.5"/><circle class="cls-1" cx="1686.5" cy="3803.5" r="106.5"/><path class="cls-1" d="M1492.08,1784.26c218,0,395.39-180,395.39-401.26S1710.1,981.74,1492.08,981.74s-395.39,180-395.39,401.26S1274.07,1784.26,1492.08,1784.26Zm0-616.86c117.15,0,212.45,96.73,212.45,215.61s-95.3,215.61-212.45,215.61-212.45-96.73-212.45-215.61S1374.94,1167.39,1492.08,1167.39Z"/><path class="cls-1" d="M1255.51,3323.08a91.22,91.22,0,0,0-80.21,48.08l-242,446.16c-24.36,44.91-8.24,101.35,36,126.08s99.88,8.36,124.24-36.56l242-446.16c24.36-44.91,8.24-101.35-36-126.08A90,90,0,0,0,1255.51,3323.08Z"/><path class="cls-1" d="M1222.67,741.81c32.38,39,90.81,44.58,130.53,12.44L1747.81,435a91.22,91.22,0,0,0,32.66-87.62,90,90,0,0,0-19.34-41.2c-32.38-39-90.81-44.58-130.53-12.44L1236,613C1196.25,645.12,1190.31,702.78,1222.67,741.81Z"/><path class="cls-1" d="M319.62,3099c0-195-137.72-357.89-319.62-393.86v192.44c79.84,31,136.69,109.62,136.69,201.42S79.84,3269.39,0,3300.42v192.44C181.9,3456.89,319.62,3294,319.62,3099Z"/><path class="cls-1" d="M678.07,2779.65c37.19-20.38,75.66-41.45,112.06-69.22l.33-.27c88.46-67.61,131.46-152.21,131.46-258.61,0-51.5-41.14-93.25-91.88-93.25s-91.88,41.75-91.88,93.25c0,46.85-16.33,77.62-58.23,109.65l-.23.17c-25.37,19.36-56.24,36.27-88.91,54.16-88.64,48.56-209.84,115-211.13,265.23q0,1.2,0,2.42t0,2.42c1.29,150.27,122.49,216.7,211.13,265.26,104.72,57.37,147.38,88.27,147.38,164s-42.64,106.58-147.36,163.94c-89.12,48.82-211.18,115.67-211.18,267.66,0,51.5,41.14,93.25,91.88,93.25s91.88-41.75,91.88-93.25c0-35.11,27.24-55.64,114.69-103.54,97.11-53.19,243.85-133.56,243.85-328.05s-146.74-274.9-243.84-328.1c-87.46-47.93-114.7-68.46-114.7-103.57S590.62,2827.55,678.07,2779.65Z"/><path class="cls-1" d="M0,577.57c49,1,87.91,11.11,116.55,30.34,46.49,31.22,75.58,94.21,88.94,192.55,29,213.58-90.82,250.27-95.93,251.72-20.18,5.74-64.34,5.27-109.56-9.42v190.91c56.53,10.68,113.23,10.28,159-2.74,103.6-29.5,268.12-158.69,227.76-455.82-21-154.29-76.31-259.62-169.2-322C158.76,413.63,86.72,393.35,0,392.18Z"/><path class="cls-1" d="M1920,2848.16c-3.19-4-6.1-7.51-8.71-10.5-11.75-13.5-23-27.42-33.83-40.87-42.06-52.11-85.55-106-153.81-125-85-23.71-176.64,23.39-265.21,68.92l-6.76,3.48c-55.79,28.67-119.46,31.28-144.93,24-5.11-1.45-125-38.14-95.93-251.72,13.36-98.34,42.46-161.33,88.94-192.55,60.86-40.87,168.3-40.57,319.33,1,142.73,39.19,230.55-33.2,300.91-94V2000.55c-45.92,26.14-82.59,57.85-114,85-68.82,59.5-91.5,73.18-139.1,60.1-206.88-56.86-360-49.2-468.11,23.43-92.9,62.39-148.24,167.72-169.2,322-40.37,297.13,124.16,426.33,227.76,455.82,78.75,22.42,190,7.48,276.93-37.15l6.84-3.51c38.59-19.84,110.39-56.5,135-55.18,12.65,4.94,40.9,39.95,59.77,63.33,11.35,14.07,24.23,30,38.21,46.09,3.47,4,7.64,9.43,12.62,15.8,24.79,31.73,69.14,88.55,133.24,132.5Z"/><path class="cls-1" d="M83.5,1344.11A90.32,90.32,0,0,0,0,1319.23v242.36l84-86.21C119.59,1439,119.36,1380.2,83.5,1344.11Z"/><path class="cls-1" d="M322.78,2190.84c24.36,44.92,80,61.27,124.24,36.56s60.38-81.17,36-126.08L241,1655.16a91.22,91.22,0,0,0-80.21-48.08,90,90,0,0,0-44,11.52c-44.25,24.73-60.38,81.17-36,126.08Z"/><path class="cls-1" d="M994.22,564.88A90.48,90.48,0,0,0,1015,437.21L757.61,86.08c-30-41.09-88-50.56-129.56-21.14a90.52,90.52,0,0,0-20.82,127.67L864.66,543.74C894.69,584.83,952.7,594.3,994.22,564.88Z"/></svg>